<svg width="199" height="139" viewBox="0 0 199 139" fill="none" xmlns="http://www.w3.org/2000/svg">
<g clip-path="url(#distritofederal)">
<path d="M199 0H0V139H199V0Z" fill="white"/>
<path d="M133.993 35.081H65.0067V103.919H133.993V35.081Z" fill="#00923F"/>
<path d="M94.5913 64.6019V50.7019L98.0406 47.26V40.9057H94.5913L99.5 36.0076L104.409 40.9057H100.959V47.26L104.409 50.7019V64.6019H118.339L121.788 68.0438H128.156V64.6019L133.065 69.5L128.156 74.3981V70.9562H121.788L118.339 74.3981H104.409V88.2981L100.959 91.74V98.0943H104.409L99.5 102.992L94.5913 98.0943H98.0406V91.74L94.5913 88.2981V74.3981H80.6613L77.212 70.9562H70.844V74.3981L65.9353 69.5L70.844 64.6019V68.0438H77.212L80.6613 64.6019H94.5913Z" fill="#F8C300"/>
<path d="M89.6827 69.5L99.5 59.7038L109.317 69.5L99.5 79.2962L89.6827 69.5Z" fill="#00923F"/>
</g>
<defs>
<clipPath id="distritofederal">
<rect width="199" height="139" fill="white"/>
</clipPath>
</defs>
</svg>
