<svg width="197" height="138" viewBox="0 0 197 138" fill="none" xmlns="http://www.w3.org/2000/svg">
<g clip-path="url(#tocatins)">
<path d="M197 0H0V138H197V0Z" fill="white"/>
<path d="M128.05 0H0V88.7143L128.05 0Z" fill="#1946B4"/>
<path d="M68.95 138H197V49.2856L68.95 138Z" fill="#FF9600"/>
<path d="M137.9 69.0001L114.021 71.7388L120.25 75.3442L113.06 75.0356L118.362 79.9048L111.41 78.0462L126.36 96.8803L107.54 81.9193L109.397 88.8768L104.531 83.571L104.84 90.7658L101.237 84.5319L98.5 108.429L95.7633 84.5319L92.1605 90.7658L92.4689 83.571L87.6032 88.8768L89.4604 81.9193L70.64 96.8803L85.5901 78.0462L78.6377 79.9048L83.9396 75.0356L76.75 75.3442L82.9794 71.7388L59.1 69.0001L82.9794 66.2614L76.75 62.656L83.9396 62.9646L78.6377 58.0954L85.5901 59.954L70.64 41.1199L89.4604 56.0809L87.6032 49.1235L92.4689 54.4292L92.1605 47.2344L95.7633 53.4683L98.5 29.5715L101.237 53.4683L104.84 47.2344L104.531 54.4292L109.397 49.1235L107.54 56.0809L126.36 41.1199L111.41 59.954L118.362 58.0954L113.06 62.9646L120.25 62.656L114.021 66.2614L137.9 69.0001Z" fill="#FF9600"/>
</g>
<defs>
<clipPath id="tocatins">
<rect width="197" height="138" fill="white"/>
</clipPath>
</defs>
</svg>
